<?xml version="1.0" encoding="utf-8"?>
<!-- Generator: Adobe Illustrator 28.1.0, SVG Export Plug-In . SVG Version: 6.00 Build 0)  -->
<svg version="1.1" id="Capa_1" xmlns="http://www.w3.org/2000/svg" xmlns:xlink="http://www.w3.org/1999/xlink" x="0px" y="0px"
	 viewBox="0 0 182 176" enable-background="new 0 0 182 176" xml:space="preserve">
<path fill="none" stroke="#00E5FF" stroke-width="1.3124" stroke-miterlimit="10" d="M13.5,90.1c0,0.2-0.1,0.3-0.2,0.4
	c-0.1,0.1-0.3,0.2-0.4,0.2h-11c-0.1,0-0.3-0.1-0.4-0.2c-0.1-0.1-0.2-0.2-0.2-0.4c0-0.2,0.1-0.3,0.2-0.4c0.1-0.1,0.2-0.2,0.4-0.2h11
	c0.2,0,0.3,0.1,0.4,0.2C13.4,89.8,13.5,89.9,13.5,90.1z"/>
<path fill="none" stroke="#00E5FF" stroke-width="1.3124" stroke-miterlimit="10" d="M15,103.1c0,0.1,0,0.3-0.1,0.4
	c-0.1,0.1-0.2,0.2-0.3,0.2l-10.9,1.9c-0.1,0-0.1,0-0.2,0c-0.1,0-0.1,0-0.2-0.1c-0.1,0-0.1-0.1-0.2-0.2c0-0.1-0.1-0.1-0.1-0.2
	c0-0.1,0-0.2,0-0.2c0-0.1,0-0.1,0.1-0.2c0-0.1,0.1-0.1,0.2-0.2c0.1,0,0.1-0.1,0.2-0.1l10.9-1.9c0.1,0,0.1,0,0.2,0
	c0.1,0,0.1,0,0.2,0.1c0.1,0,0.1,0.1,0.2,0.2c0,0.1,0.1,0.1,0.1,0.2L15,103.1z"/>
<path fill="none" stroke="#00E5FF" stroke-width="1.3124" stroke-miterlimit="10" d="M18.7,115.7c0,0.1,0,0.2-0.1,0.3
	c-0.1,0.1-0.2,0.2-0.3,0.2L8,120c-0.1,0.1-0.3,0-0.4,0c-0.1-0.1-0.2-0.2-0.3-0.3c0-0.1,0-0.3,0-0.4c0.1-0.1,0.2-0.2,0.3-0.3
	l10.4-3.8c0.1,0,0.1,0,0.2,0c0.1,0,0.1,0,0.2,0.1c0.1,0,0.1,0.1,0.2,0.1c0,0.1,0.1,0.1,0.1,0.2L18.7,115.7z"/>
<path fill="none" stroke="#00E5FF" stroke-width="1.3124" stroke-miterlimit="10" d="M24.6,127.4c0,0.1,0,0.2-0.1,0.3
	c-0.1,0.1-0.1,0.2-0.2,0.2l-9.5,5.5c-0.1,0.1-0.3,0.1-0.4,0.1c-0.1,0-0.3-0.1-0.4-0.3c-0.1-0.1-0.1-0.3-0.1-0.4
	c0-0.1,0.1-0.3,0.3-0.4l9.6-5.5c0.1,0,0.1-0.1,0.2-0.1c0.1,0,0.1,0,0.2,0c0.1,0,0.1,0,0.2,0.1c0.1,0,0.1,0.1,0.1,0.2
	C24.6,127.2,24.6,127.3,24.6,127.4z"/>
<path fill="none" stroke="#00E5FF" stroke-width="1.3124" stroke-miterlimit="10" d="M32.4,137.9c0,0.1,0,0.2,0,0.2
	c0,0.1-0.1,0.1-0.1,0.2l-8.5,7.1c-0.1,0.1-0.1,0.1-0.2,0.1c-0.1,0-0.1,0-0.2,0s-0.1,0-0.2,0c-0.1,0-0.1-0.1-0.2-0.1
	c-0.1-0.1-0.1-0.3-0.1-0.4c0-0.1,0.1-0.3,0.2-0.4l8.5-7.1c0.1-0.1,0.1-0.1,0.2-0.1c0.1,0,0.1,0,0.2,0s0.1,0,0.2,0
	c0.1,0,0.1,0.1,0.2,0.1C32.4,137.7,32.4,137.8,32.4,137.9z"/>
<path fill="none" stroke="#00E5FF" stroke-width="1.3124" stroke-miterlimit="10" d="M42,147c0,0.1-0.1,0.3-0.1,0.4l-7.1,8.5
	c-0.1,0.1-0.3,0.2-0.4,0.2c-0.2,0-0.3-0.1-0.4-0.2c-0.1-0.1-0.2-0.2-0.2-0.4c0-0.2,0-0.3,0.1-0.4l7.1-8.5c0.1-0.1,0.3-0.2,0.4-0.2
	c0.1,0,0.3,0.1,0.4,0.2c0.1,0.1,0.1,0.1,0.2,0.2C41.9,146.8,42,146.9,42,147z"/>
<path fill="none" stroke="#00E5FF" stroke-width="1.3124" stroke-miterlimit="10" d="M52.9,154.1c0,0.1,0,0.2-0.1,0.3l-5.5,9.6
	c0,0.1-0.1,0.1-0.1,0.2c-0.1,0-0.1,0.1-0.2,0.1c-0.1,0-0.1,0-0.2,0c-0.1,0-0.1,0-0.2-0.1c-0.1-0.1-0.2-0.2-0.3-0.4
	c0-0.1,0-0.3,0.1-0.4l5.5-9.5c0-0.1,0.1-0.1,0.1-0.2c0.1,0,0.1-0.1,0.2-0.1c0.1,0,0.1,0,0.2,0c0.1,0,0.1,0,0.2,0.1
	c0.1,0,0.1,0.1,0.2,0.2C52.9,154,52.9,154,52.9,154.1z"/>
<path fill="none" stroke="#00E5FF" stroke-width="1.3124" stroke-miterlimit="10" d="M64.9,159.3c0,0.1,0,0.1,0,0.2l-3.8,10.4
	c-0.1,0.1-0.2,0.3-0.3,0.3c-0.1,0.1-0.3,0.1-0.4,0c-0.1,0-0.1-0.1-0.2-0.1c-0.1-0.1-0.1-0.1-0.1-0.2c0-0.1,0-0.1-0.1-0.2
	c0-0.1,0-0.2,0-0.2l3.8-10.4c0.1-0.1,0.2-0.3,0.3-0.3c0.1-0.1,0.3-0.1,0.4,0c0.1,0,0.2,0.1,0.3,0.2
	C64.9,159.1,64.9,159.2,64.9,159.3z"/>
<path fill="none" stroke="#00E5FF" stroke-width="1.3124" stroke-miterlimit="10" d="M77.7,162.4v0.1l-1.9,10.9c0,0.1,0,0.1-0.1,0.2
	c0,0.1-0.1,0.1-0.2,0.2c-0.1,0-0.1,0.1-0.2,0.1c-0.1,0-0.1,0-0.2,0c-0.1,0-0.1,0-0.2-0.1c-0.1,0-0.1-0.1-0.2-0.2
	c0-0.1-0.1-0.1-0.1-0.2c0-0.1,0-0.1,0-0.2l1.9-10.9c0-0.1,0.1-0.3,0.2-0.3c0.1-0.1,0.3-0.1,0.4-0.1s0.3,0.1,0.4,0.2
	C77.7,162.1,77.7,162.2,77.7,162.4L77.7,162.4z"/>
<path fill="none" stroke="#00E5FF" stroke-width="1.3124" stroke-miterlimit="10" d="M90.8,163.1v11c0,0.2-0.1,0.3-0.2,0.4
	s-0.2,0.2-0.4,0.2c-0.2,0-0.3-0.1-0.4-0.2c-0.1-0.1-0.2-0.2-0.2-0.4v-11c0-0.2,0.1-0.3,0.2-0.4c0.1-0.1,0.3-0.2,0.4-0.2
	c0.2,0,0.3,0.1,0.4,0.2C90.7,162.8,90.8,163,90.8,163.1z"/>
<path fill="none" stroke="#00E5FF" stroke-width="1.3124" stroke-miterlimit="10" d="M86.5,1.7v11c0,0.2-0.1,0.3-0.2,0.4
	c-0.1,0.1-0.3,0.2-0.4,0.2c-0.2,0-0.3-0.1-0.4-0.2c-0.1-0.1-0.2-0.3-0.2-0.4v-11c0-0.1,0.1-0.3,0.2-0.4c0.1-0.1,0.2-0.2,0.4-0.2
	c0.2,0,0.3,0.1,0.4,0.2C86.4,1.4,86.5,1.6,86.5,1.7z"/>
<path fill="none" stroke="#00E5FF" stroke-width="1.3124" stroke-miterlimit="10" d="M73.5,14.3c0,0.1,0,0.3-0.1,0.4
	c-0.1,0.1-0.2,0.2-0.3,0.2c-0.1,0-0.1,0-0.2,0c-0.1,0-0.1,0-0.2-0.1c-0.1,0-0.1-0.1-0.2-0.2c0-0.1-0.1-0.1-0.1-0.2L70.4,3.5
	c0-0.1,0-0.1,0-0.2c0-0.1,0-0.1,0.1-0.2s0.1-0.1,0.2-0.2c0.1,0,0.1-0.1,0.2-0.1c0.1,0,0.3,0,0.4,0.1c0.1,0.1,0.2,0.2,0.2,0.4
	l1.9,10.9L73.5,14.3z"/>
<path fill="none" stroke="#00E5FF" stroke-width="1.3124" stroke-miterlimit="10" d="M60.9,18c0,0.1,0,0.2-0.1,0.3
	c-0.1,0.1-0.2,0.2-0.3,0.2c-0.1,0.1-0.3,0-0.4,0c-0.1-0.1-0.2-0.2-0.3-0.3L56,7.8c0-0.1,0-0.1,0-0.2c0-0.1,0-0.1,0.1-0.2
	c0-0.1,0.1-0.1,0.1-0.2c0.1-0.1,0.1-0.1,0.2-0.1c0.1,0,0.1,0,0.2,0c0.1,0,0.1,0,0.2,0.1c0.1,0,0.1,0.1,0.2,0.1
	c0.1,0.1,0.1,0.1,0.1,0.2l3.8,10.4C60.9,17.9,60.9,17.9,60.9,18z"/>
<path fill="none" stroke="#00E5FF" stroke-width="1.3124" stroke-miterlimit="10" d="M49.2,23.9c0,0.1,0,0.2-0.1,0.3
	c0,0.1-0.1,0.2-0.2,0.2c-0.1,0.1-0.3,0.1-0.4,0.1c-0.1,0-0.3-0.1-0.4-0.3l-5.5-9.5c0-0.1-0.1-0.1-0.1-0.2c0-0.1,0-0.1,0-0.2
	c0-0.1,0.1-0.1,0.1-0.2c0-0.1,0.1-0.1,0.2-0.1c0.1-0.1,0.3-0.1,0.4-0.1c0.1,0,0.3,0.1,0.4,0.3l5.5,9.5
	C49.2,23.7,49.2,23.8,49.2,23.9z"/>
<path fill="none" stroke="#00E5FF" stroke-width="1.3124" stroke-miterlimit="10" d="M38.7,31.7c0,0.1,0,0.2-0.1,0.3
	c-0.1,0.1-0.2,0.2-0.3,0.2c-0.1,0-0.2,0-0.3,0c-0.1,0-0.2-0.1-0.3-0.2l-7.1-8.5c-0.1-0.1-0.1-0.1-0.1-0.2c0-0.1,0-0.1,0-0.2
	c0-0.1,0-0.2,0.1-0.2s0.1-0.1,0.1-0.2s0.1-0.1,0.2-0.1c0.1,0,0.1,0,0.2,0c0.1,0,0.1,0,0.2,0.1c0.1,0,0.1,0.1,0.2,0.1l7.1,8.4
	C38.6,31.4,38.7,31.6,38.7,31.7z"/>
<path fill="none" stroke="#00E5FF" stroke-width="1.3124" stroke-miterlimit="10" d="M29.6,41.2c0,0.1,0,0.3-0.1,0.4
	c0,0.1-0.1,0.1-0.2,0.1c-0.1,0-0.1,0.1-0.2,0.1c-0.1,0-0.1,0-0.2,0c-0.1,0-0.1-0.1-0.2-0.1l-8.4-7.1c-0.1,0-0.1-0.1-0.1-0.2
	c0-0.1-0.1-0.1-0.1-0.2c0-0.1,0-0.1,0-0.2s0.1-0.1,0.1-0.2c0-0.1,0.1-0.1,0.2-0.1c0.1,0,0.1-0.1,0.2-0.1c0.1,0,0.1,0,0.2,0
	c0.1,0,0.1,0.1,0.2,0.1l8.5,7.1c0.1,0.1,0.1,0.1,0.1,0.2S29.6,41.2,29.6,41.2z"/>
<path fill="none" stroke="#00E5FF" stroke-width="1.3124" stroke-miterlimit="10" d="M22.5,52.2c0,0.1,0,0.2-0.1,0.3
	c-0.1,0.1-0.2,0.2-0.4,0.3c-0.1,0-0.3,0-0.4-0.1l-9.5-5.5c-0.1,0-0.1-0.1-0.2-0.1c-0.1-0.1-0.1-0.1-0.1-0.2c0-0.1,0-0.2,0-0.2
	c0-0.1,0-0.2,0.1-0.2c0-0.1,0.1-0.1,0.2-0.2c0.1,0,0.1-0.1,0.2-0.1c0.1,0,0.2,0,0.2,0c0.1,0,0.2,0,0.2,0.1l9.5,5.5
	c0.1,0.1,0.2,0.1,0.2,0.2C22.4,52,22.5,52.1,22.5,52.2z"/>
<path fill="none" stroke="#00E5FF" stroke-width="1.3124" stroke-miterlimit="10" d="M17.3,64.3v0.2c-0.1,0.1-0.2,0.3-0.3,0.3
	c-0.1,0.1-0.3,0.1-0.4,0L6.2,61.1C6.1,61,6,61,5.9,60.9c-0.1,0-0.1-0.1-0.2-0.2c0-0.1-0.1-0.2-0.1-0.2c0-0.1,0-0.2,0-0.2
	c0-0.1,0.1-0.1,0.1-0.2C5.9,60,6,60,6.1,60s0.2,0,0.2,0s0.2,0,0.2,0.1l10.4,3.8c0.1,0,0.2,0.1,0.3,0.2
	C17.2,64.1,17.3,64.2,17.3,64.3z"/>
<path fill="none" stroke="#00E5FF" stroke-width="1.3124" stroke-miterlimit="10" d="M14.2,77v0.1c0,0.1-0.1,0.3-0.2,0.4
	c-0.1,0.1-0.3,0.1-0.4,0.1L2.7,75.6c-0.1,0-0.3-0.1-0.4-0.2c-0.1-0.1-0.1-0.3-0.1-0.4c0-0.1,0.1-0.3,0.2-0.4
	c0.1-0.1,0.3-0.1,0.4-0.1l10.9,1.9c0.1,0,0.2,0.1,0.3,0.2C14.2,76.7,14.2,76.8,14.2,77z"/>
<path fill="none" stroke="#00E5FF" stroke-width="1.3124" stroke-miterlimit="10" d="M168.4,90.1c0,0.2,0.1,0.3,0.2,0.4
	c0.1,0.1,0.3,0.2,0.4,0.2h11c0.2,0,0.3-0.1,0.4-0.2c0.1-0.1,0.2-0.2,0.2-0.4c0-0.2-0.1-0.3-0.2-0.4c-0.1-0.1-0.2-0.2-0.4-0.2h-11
	c-0.2,0-0.3,0.1-0.4,0.2C168.4,89.8,168.4,89.9,168.4,90.1z"/>
<path fill="none" stroke="#00E5FF" stroke-width="1.3124" stroke-miterlimit="10" d="M166.9,103.1c0,0.1,0,0.3,0.1,0.4
	c0.1,0.1,0.2,0.2,0.3,0.2l10.9,1.9c0.1,0,0.1,0,0.2,0c0.1,0,0.1,0,0.2-0.1c0.1,0,0.1-0.1,0.2-0.2c0-0.1,0.1-0.1,0.1-0.2
	c0-0.1,0-0.1,0-0.2c0-0.1,0-0.1-0.1-0.2c0-0.1-0.1-0.1-0.2-0.2c-0.1,0-0.1-0.1-0.2-0.1l-10.9-1.9c-0.1,0-0.1,0-0.2,0
	c-0.1,0-0.1,0-0.2,0.1c-0.1,0-0.1,0.1-0.2,0.2c0,0.1-0.1,0.1-0.1,0.2L166.9,103.1z"/>
<path fill="none" stroke="#00E5FF" stroke-width="1.3124" stroke-miterlimit="10" d="M163.1,115.7c0,0.1,0,0.2,0.1,0.3
	c0.1,0.1,0.2,0.2,0.3,0.2l10.4,3.8c0.1,0.1,0.3,0,0.4,0c0.1-0.1,0.2-0.2,0.3-0.3c0-0.1,0-0.3,0-0.4c-0.1-0.1-0.2-0.2-0.3-0.3
	l-10.4-3.8c-0.1,0-0.1,0-0.2,0c-0.1,0-0.1,0-0.2,0.1c-0.1,0-0.1,0.1-0.2,0.1c-0.1,0.1-0.1,0.1-0.1,0.2L163.1,115.7z"/>
<path fill="none" stroke="#00E5FF" stroke-width="1.3124" stroke-miterlimit="10" d="M157.2,127.4c0,0.1,0,0.2,0.1,0.3
	c0.1,0.1,0.1,0.2,0.2,0.2l9.5,5.5c0.1,0.1,0.3,0.1,0.4,0.1c0.1,0,0.3-0.1,0.4-0.3c0.1-0.1,0.1-0.3,0.1-0.4c0-0.1-0.1-0.3-0.3-0.4
	l-9.6-5.5c-0.1,0-0.1-0.1-0.2-0.1c-0.1,0-0.1,0-0.2,0c-0.1,0-0.1,0-0.2,0.1c-0.1,0-0.1,0.1-0.1,0.2
	C157.3,127.2,157.2,127.3,157.2,127.4z"/>
<path fill="none" stroke="#00E5FF" stroke-width="1.3124" stroke-miterlimit="10" d="M149.4,137.9c0,0.1,0,0.2,0,0.2
	c0,0.1,0.1,0.1,0.1,0.2l8.5,7.1c0.1,0.1,0.1,0.1,0.2,0.1c0.1,0,0.1,0,0.2,0c0.1,0,0.1,0,0.2,0c0.1,0,0.1-0.1,0.2-0.1
	c0.1-0.1,0.1-0.3,0.1-0.4c0-0.1-0.1-0.3-0.2-0.4l-8.5-7.1c-0.1-0.1-0.1-0.1-0.2-0.1c-0.1,0-0.1,0-0.2,0s-0.1,0-0.2,0
	c-0.1,0-0.1,0.1-0.2,0.1C149.5,137.7,149.4,137.8,149.4,137.9z"/>
<path fill="none" stroke="#00E5FF" stroke-width="1.3124" stroke-miterlimit="10" d="M139.9,147c0,0.1,0.1,0.3,0.1,0.4l7.1,8.5
	c0.1,0.1,0.3,0.2,0.4,0.2c0.2,0,0.3-0.1,0.4-0.2c0.1-0.1,0.2-0.2,0.2-0.4c0-0.2,0-0.3-0.1-0.4l-7.1-8.5c-0.1-0.1-0.3-0.2-0.4-0.2
	s-0.3,0.1-0.4,0.2c-0.1,0.1-0.1,0.1-0.2,0.2C139.9,146.8,139.9,146.9,139.9,147z"/>
<path fill="none" stroke="#00E5FF" stroke-width="1.3124" stroke-miterlimit="10" d="M128.9,154.1c0,0.1,0,0.2,0.1,0.3l5.5,9.6
	c0,0.1,0.1,0.1,0.1,0.2c0.1,0,0.1,0.1,0.2,0.1c0.1,0,0.1,0,0.2,0c0.1,0,0.1,0,0.2-0.1c0.1-0.1,0.2-0.2,0.3-0.4c0-0.1,0-0.3-0.1-0.4
	l-5.5-9.5c0-0.1-0.1-0.1-0.1-0.2c-0.1,0-0.1-0.1-0.2-0.1c-0.1,0-0.1,0-0.2,0c-0.1,0-0.1,0-0.2,0.1c-0.1,0-0.1,0.1-0.2,0.2
	C129,154,128.9,154,128.9,154.1z"/>
<path fill="none" stroke="#00E5FF" stroke-width="1.3124" stroke-miterlimit="10" d="M116.9,159.3c0,0.1,0,0.1,0,0.2l3.8,10.4
	c0.1,0.1,0.2,0.3,0.3,0.3c0.1,0.1,0.3,0.1,0.4,0c0.1,0,0.1-0.1,0.2-0.1c0.1-0.1,0.1-0.1,0.1-0.2c0-0.1,0-0.1,0.1-0.2
	c0-0.1,0-0.1,0-0.2l-3.8-10.4c-0.1-0.1-0.2-0.3-0.3-0.3c-0.1-0.1-0.3-0.1-0.4,0c-0.1,0-0.2,0.1-0.3,0.2
	C116.9,159.1,116.9,159.2,116.9,159.3z"/>
<path fill="none" stroke="#00E5FF" stroke-width="1.3124" stroke-miterlimit="10" d="M104.1,162.4v0.1l1.9,10.9c0,0.1,0,0.1,0.1,0.2
	c0,0.1,0.1,0.1,0.2,0.2c0.1,0,0.1,0.1,0.2,0.1c0.1,0,0.1,0,0.2,0c0.1,0,0.1,0,0.2-0.1c0.1,0,0.1-0.1,0.2-0.2c0-0.1,0.1-0.1,0.1-0.2
	c0-0.1,0-0.1,0-0.2l-1.9-10.9c0-0.1-0.1-0.3-0.2-0.3c-0.1-0.1-0.3-0.1-0.4-0.1s-0.3,0.1-0.4,0.2
	C104.2,162.1,104.1,162.2,104.1,162.4L104.1,162.4z"/>
<path fill="none" stroke="#00E5FF" stroke-width="1.3124" stroke-miterlimit="10" d="M95.3,1.7v11c0,0.2,0.1,0.3,0.2,0.4
	s0.3,0.2,0.4,0.2c0.2,0,0.3-0.1,0.4-0.2c0.1-0.1,0.2-0.3,0.2-0.4v-11c0-0.1-0.1-0.3-0.2-0.4c-0.1-0.1-0.2-0.2-0.4-0.2
	c-0.2,0-0.3,0.1-0.4,0.2C95.4,1.4,95.3,1.6,95.3,1.7z"/>
<path fill="none" stroke="#00E5FF" stroke-width="1.3124" stroke-miterlimit="10" d="M108.4,14.3c0,0.1,0,0.3,0.1,0.4
	c0.1,0.1,0.2,0.2,0.3,0.2c0.1,0,0.2,0,0.2,0c0.1,0,0.1,0,0.2-0.1c0.1,0,0.1-0.1,0.2-0.2c0-0.1,0.1-0.1,0.1-0.2l1.9-10.9
	c0-0.1,0-0.1,0-0.2c0-0.1,0-0.1-0.1-0.2s-0.1-0.1-0.2-0.2c-0.1,0-0.1-0.1-0.2-0.1c-0.1,0-0.3,0-0.4,0.1c-0.1,0.1-0.2,0.2-0.2,0.4
	l-1.9,10.9L108.4,14.3z"/>
<path fill="none" stroke="#00E5FF" stroke-width="1.3124" stroke-miterlimit="10" d="M120.9,18c0,0.1,0,0.2,0.1,0.3
	c0.1,0.1,0.2,0.2,0.3,0.2c0.1,0.1,0.3,0,0.4,0c0.1-0.1,0.2-0.2,0.3-0.3l3.8-10.4c0-0.1,0-0.1,0-0.2c0-0.1,0-0.1-0.1-0.2
	c0-0.1-0.1-0.1-0.1-0.2c-0.1-0.1-0.1-0.1-0.2-0.1c-0.1,0-0.1,0-0.2,0c-0.1,0-0.1,0-0.2,0.1c-0.1,0-0.1,0.1-0.2,0.1s-0.1,0.1-0.1,0.2
	L121,17.8C120.9,17.9,120.9,17.9,120.9,18z"/>
<path fill="none" stroke="#00E5FF" stroke-width="1.3124" stroke-miterlimit="10" d="M132.6,23.9c0,0.1,0,0.2,0.1,0.3
	c0,0.1,0.1,0.2,0.2,0.2c0.1,0.1,0.3,0.1,0.4,0.1c0.1,0,0.3-0.1,0.4-0.3l5.5-9.5c0-0.1,0.1-0.1,0.1-0.2c0-0.1,0-0.1,0-0.2
	c0-0.1-0.1-0.1-0.1-0.2c0-0.1-0.1-0.1-0.2-0.1c-0.1-0.1-0.3-0.1-0.4-0.1c-0.1,0-0.3,0.1-0.4,0.3l-5.5,9.5
	C132.7,23.7,132.6,23.8,132.6,23.9z"/>
<path fill="none" stroke="#00E5FF" stroke-width="1.3124" stroke-miterlimit="10" d="M143.2,31.7c0,0.1,0,0.2,0.1,0.3
	c0.1,0.1,0.2,0.2,0.3,0.2c0.1,0,0.2,0,0.3,0c0.1,0,0.2-0.1,0.3-0.2l7.1-8.5c0.1-0.1,0.1-0.1,0.1-0.2c0-0.1,0-0.1,0-0.2
	c0-0.1,0-0.2-0.1-0.2c0-0.1-0.1-0.1-0.1-0.2c-0.1,0-0.1-0.1-0.2-0.1c-0.1,0-0.1,0-0.2,0s-0.1,0-0.2,0.1c-0.1,0-0.1,0.1-0.2,0.1
	l-7.1,8.4C143.2,31.4,143.2,31.6,143.2,31.7z"/>
<path fill="none" stroke="#00E5FF" stroke-width="1.3124" stroke-miterlimit="10" d="M152.2,41.2c0,0.1,0,0.3,0.1,0.4
	c0,0.1,0.1,0.1,0.2,0.1c0.1,0,0.1,0.1,0.2,0.1c0.1,0,0.2,0,0.2,0c0.1,0,0.1-0.1,0.2-0.1l8.4-7.1c0.1,0,0.1-0.1,0.1-0.2
	c0-0.1,0.1-0.1,0.1-0.2c0-0.1,0-0.1,0-0.2s-0.1-0.1-0.1-0.2c0-0.1-0.1-0.1-0.2-0.1c-0.1,0-0.1-0.1-0.2-0.1c-0.1,0-0.2,0-0.2,0
	c-0.1,0-0.1,0.1-0.2,0.1l-8.5,7.1c-0.1,0.1-0.1,0.1-0.1,0.2C152.2,41.1,152.2,41.2,152.2,41.2z"/>
<path fill="none" stroke="#00E5FF" stroke-width="1.3124" stroke-miterlimit="10" d="M159.4,52.2c0,0.1,0,0.2,0.1,0.3
	c0.1,0.1,0.2,0.2,0.4,0.3c0.1,0,0.3,0,0.4-0.1l9.5-5.5c0.1,0,0.1-0.1,0.2-0.1c0.1-0.1,0.1-0.1,0.1-0.2c0-0.1,0-0.2,0-0.2
	c0-0.1,0-0.2-0.1-0.2c0-0.1-0.1-0.1-0.2-0.2c-0.1,0-0.1-0.1-0.2-0.1c-0.1,0-0.2,0-0.2,0c-0.1,0-0.2,0-0.2,0.1l-9.5,5.5
	c-0.1,0.1-0.2,0.1-0.2,0.2C159.4,52,159.4,52.1,159.4,52.2z"/>
<path fill="none" stroke="#00E5FF" stroke-width="1.3124" stroke-miterlimit="10" d="M164.6,64.3v0.2c0.1,0.1,0.2,0.3,0.3,0.3
	c0.1,0.1,0.3,0.1,0.4,0l10.4-3.8c0.1,0,0.2-0.1,0.2-0.1c0.1,0,0.1-0.1,0.2-0.2c0-0.1,0.1-0.2,0.1-0.2c0-0.1,0-0.2,0-0.2
	s-0.1-0.1-0.1-0.2c-0.1-0.1-0.1-0.1-0.2-0.1c-0.1,0-0.2,0-0.2,0c-0.1,0-0.2,0-0.2,0.1l-10.4,3.8c-0.1,0-0.2,0.1-0.3,0.2
	C164.6,64.1,164.6,64.2,164.6,64.3z"/>
<path fill="none" stroke="#00E5FF" stroke-width="1.3124" stroke-miterlimit="10" d="M167.6,77v0.1c0,0.1,0.1,0.3,0.2,0.4
	c0.1,0.1,0.3,0.1,0.4,0.1l10.9-1.9c0.1,0,0.3-0.1,0.4-0.2c0.1-0.1,0.1-0.3,0.1-0.4c0-0.1-0.1-0.3-0.2-0.4c-0.1-0.1-0.3-0.1-0.4-0.1
	l-10.9,1.9c-0.1,0-0.2,0.1-0.3,0.2C167.7,76.7,167.6,76.8,167.6,77z"/>
</svg>
