<?xml version="1.0" encoding="utf-8"?>
<svg version="1.1" id="Capa_1" xmlns="http://www.w3.org/2000/svg" xmlns:xlink="http://www.w3.org/1999/xlink" x="0px" y="0px"
	 viewBox="0 0 783 90" enable-background="new 0 0 783 90" xml:space="preserve">
<g>
	<defs>
		<rect id="SVGID_1_" width="783" height="90"/>
	</defs>
	<clipPath id="SVGID_00000085238402797287751170000006230975762335471285_">
		<use xlink:href="#SVGID_1_"  overflow="visible"/>
	</clipPath>
	<g clip-path="url(#SVGID_00000085238402797287751170000006230975762335471285_)">
		<g>
			<defs>
				<rect id="SVGID_00000020390132408479614640000001743137357909143198_" x="-55" y="1" width="887" height="88"/>
			</defs>
			<clipPath id="SVGID_00000039821692617491110040000013977044921770470574_">
				<use xlink:href="#SVGID_00000020390132408479614640000001743137357909143198_"  overflow="visible"/>
			</clipPath>
			<g clip-path="url(#SVGID_00000039821692617491110040000013977044921770470574_)">
				<path fill="none" stroke="#00E5FF" stroke-width="2" stroke-miterlimit="10" d="M-54.3,32.2c24.5,0,29.5,55.6,53.9,55.6
					C24.1,87.8,24,2.2,48.4,2.2c24.5,0,24.5,85.6,48.9,85.6c24.5,0,24.5-85.6,49-85.6c24.5,0,24.5,85.6,48.9,85.6
					c24.5,0,24.5-85.6,48.9-85.6s24.5,85.6,49,85.6c24.5,0,24.5-85.6,48.9-85.6c24.5,0,24.5,85.6,49,85.6
					c24.5,0,24.5-85.6,48.9-85.6c24.5,0,24.5,85.6,49,85.6s24.5-85.6,48.9-85.6s24.5,85.6,49,85.6c24.5,0,24.5-85.6,48.9-85.6
					c24.5,0,24.5,85.6,49,85.6c24.5,0,24.7-85.6,49-85.6c24.3,0,24.5,85.6,49,85.6c24.5,0,24.5-85.6,48.7-85.6"/>
			</g>
		</g>
	</g>
</g>
</svg>
